<?xml version="1.0" encoding="UTF-8" standalone="no"?>
<!-- Created with Inkscape (http://www.inkscape.org/) -->

<svg
   width="180"
   height="180"
   viewBox="0 0 180 180"
   version="1.1"
   id="svg1"
   inkscape:version="1.4 (86a8ad7, 2024-10-11)"
   sodipodi:docname="icon.svg"
   inkscape:export-filename="icon.png"
   inkscape:export-xdpi="96"
   inkscape:export-ydpi="96"
   xmlns:inkscape="http://www.inkscape.org/namespaces/inkscape"
   xmlns:sodipodi="http://sodipodi.sourceforge.net/DTD/sodipodi-0.dtd"
   xmlns:xlink="http://www.w3.org/1999/xlink"
   xmlns="http://www.w3.org/2000/svg"
   xmlns:svg="http://www.w3.org/2000/svg">
  <sodipodi:namedview
     id="namedview1"
     pagecolor="#505050"
     bordercolor="#eeeeee"
     borderopacity="1"
     inkscape:showpageshadow="0"
     inkscape:pageopacity="0"
     inkscape:pagecheckerboard="0"
     inkscape:deskcolor="#505050"
     inkscape:document-units="px"
     inkscape:zoom="2"
     inkscape:cx="-2.75"
     inkscape:cy="107.75"
     inkscape:window-width="1920"
     inkscape:window-height="991"
     inkscape:window-x="-9"
     inkscape:window-y="-9"
     inkscape:window-maximized="1"
     inkscape:current-layer="layer1"
     inkscape:export-bgcolor="#ffffff00" />
  <defs
     id="defs1">
    <linearGradient
       inkscape:collect="always"
       xlink:href="#linearGradient12"
       id="linearGradient13"
       x1="90"
       y1="17.5"
       x2="90.210938"
       y2="146.5"
       gradientUnits="userSpaceOnUse" />
    <linearGradient
       id="linearGradient12"
       inkscape:collect="always">
      <stop
         style="stop-color:#68e7ff;stop-opacity:1;"
         offset="0"
         id="stop12" />
      <stop
         style="stop-color:#ff62cb;stop-opacity:1;"
         offset="0.5"
         id="stop2" />
      <stop
         style="stop-color:#940091;stop-opacity:1;"
         offset="1"
         id="stop13" />
    </linearGradient>
  </defs>
  <g
     inkscape:label="Layer 1"
     inkscape:groupmode="layer"
     id="layer1">
    <path
       id="path1"
       style="fill:url(#linearGradient13);fill-opacity:1;stroke-width:1.37349"
       d="M 90,0 C 58.899444,-5.08e-5 33.687449,25.211944 33.6875,56.3125 c 0.011,0.164113 0.02272,0.328176 0.03516,0.492188 H 33.6875 l 0.0625,0.390624 c 0.08874,5.413441 0.957709,10.785793 2.580078,15.951172 0.644901,2.166074 1.243562,3.624251 2.066406,5.535157 1.075903,2.486213 2.329811,4.891548 3.751954,7.197265 L 91.210938,180 140.24219,81.5 c 0.43314,-0.818469 0.84603,-1.647497 1.23828,-2.486328 0.85899,-2.039426 1.47828,-3.561353 2.08008,-5.576172 1.7962,-5.531961 2.72452,-11.308802 2.75195,-17.125 -0.005,-0.401135 -0.0153,-0.802199 -0.0293,-1.203125 l 0.0137,-0.0957 h -0.0156 C 145.57574,24.433638 120.58817,0.008789 90,0 Z m 0,37.197266 A 19.115129,19.115129 0 0 1 109.11523,56.3125 19.115129,19.115129 0 0 1 90,75.427734 19.115129,19.115129 0 0 1 70.884766,56.3125 19.115129,19.115129 0 0 1 90,37.197266 Z" />
  </g>
</svg>
